# xmcd
#
# Track frame offsets:
#	150
#	12465
#	26237
#	37265
#	49845
#	65239
#	77840
#	93837
#	103880
#	118680
#
# Disc length: 1782 seconds
#
# Revision: 1
# Processed by: cddbd v1.5.1PL2 Copyright (c) Steve Scherf et al.
# Submitted via: audiograbber 1.83.01
#
DISCID=8e06f40a
DTITLE=Dixie Melody Boys - Old Time Religion
DYEAR=1996
DGENRE=Southern Gospel
TTITLE0=When I Lay My Burdens Down
TTITLE1=A Mansion Being Built
TTITLE2=Walkin' In The Light
TTITLE3=Precious Lamb Of Calvary
TTITLE4=He's My King
TTITLE5=Welcome Home
TTITLE6=Ordinary Day
TTITLE7=Nothing New About The Old Time Religion
TTITLE8=Another Door
TTITLE9=Clapping Of The Nail Scarred Hands
EXTD=
EXTT0=
EXTT1=
EXTT2=
EXTT3=
EXTT4=
EXTT5=
EXTT6=
EXTT7=
EXTT8=
EXTT9=
PLAYORDER=
